#Comment line ignore any data following # character 
#Hierarchical Translation and Rotation (.htr) file 
[Header]	
#Header keywords are followed by a single value 
FileType HTR		#Single word string
DataType HTRS		#Translation followed by rotation and scale data
FileVersion 1		#integer
NumSegments 84		#integer
NumFrames 2		#integer
DataFrameRate 30		#integer, data frame rate in this file
EulerRotationOrder ZYX
CalibrationUnits mm
RotationUnits Degrees
GlobalAxisofGravity Y
BoneLengthAxis Y
ScaleFactor 1.00
[SegmentNames&Hierarchy]
#CHILD	PARENT
MASTER GLOBAL
root MASTER
chest root
L_mid_tent01 root
R_mid_tent01 root
spine01 root
Bip01_Neck chest
L_humerus chest
R_humerus chest
weapon_bone chest
Bip01_Head Bip01_Neck
eye_left_bone Bip01_Head
eye_right_bone Bip01_Head
L_forearm L_humerus
L_front_hand L_forearm
L_weapon_bone L_forearm
L_front_hand01_01 L_front_hand
L_front_hand02_01 L_front_hand
L_front_hand03_01 L_front_hand
L_front_hand01_02 L_front_hand01_01
L_front_hand02_02 L_front_hand02_01
L_front_hand03_02 L_front_hand03_01
R_forearm R_humerus
R_front_hand R_forearm
R_weapon_bone R_forearm
R_front_hand01_01 R_front_hand
R_front_hand02_01 R_front_hand
R_front_hand03_01 R_front_hand
R_front_hand01_02 R_front_hand01_01
R_front_hand02_02 R_front_hand02_01
R_front_hand03_02 R_front_hand03_01
null_rope01_connect L_mid_tent01
Rope1_Seg01 null_rope01_connect
Rope1_Seg02 Rope1_Seg01
Rope1_Seg03 Rope1_Seg02
Rope1_Seg04 Rope1_Seg03
Rope1_Seg05 Rope1_Seg04
Rope1_Seg06 Rope1_Seg05
Rope1_Seg07 Rope1_Seg06
Rope1_Seg09 Rope1_Seg07
L_mid_hand01 Rope1_Seg09
L_mid_hand02 Rope1_Seg09
L_mid_hand03 Rope1_Seg09
null_rope02_connect R_mid_tent01
Rope2_Seg01 null_rope02_connect
Rope2_Seg02 Rope2_Seg01
Rope2_Seg03 Rope2_Seg02
Rope2_Seg04 Rope2_Seg03
Rope2_Seg05 Rope2_Seg04
Rope2_Seg06 Rope2_Seg05
Rope2_Seg07 Rope2_Seg06
Rope2_Seg09 Rope2_Seg07
R_mid_hand01 Rope2_Seg09
R_mid_hand02 Rope2_Seg09
R_mid_hand03 Rope2_Seg09
spine02 spine01
spine03 spine02
pelvis spine03
null_rope03_connect pelvis
null_rope04_connect pelvis
Rope3_Seg01 null_rope03_connect
Rope3_Seg02 Rope3_Seg01
Rope3_Seg03 Rope3_Seg02
Rope3_Seg04 Rope3_Seg03
Rope3_Seg05 Rope3_Seg04
Rope3_Seg06 Rope3_Seg05
Rope3_Seg07 Rope3_Seg06
Rope3_Seg08 Rope3_Seg07
Rope3_Seg09 Rope3_Seg08
R_rear_hand01 Rope3_Seg09
R_rear_hand02 Rope3_Seg09
R_rear_hand03 Rope3_Seg09
Rope4_Seg01 null_rope04_connect
Rope4_Seg02 Rope4_Seg01
Rope4_Seg03 Rope4_Seg02
Rope4_Seg04 Rope4_Seg03
Rope4_Seg05 Rope4_Seg04
Rope4_Seg06 Rope4_Seg05
Rope4_Seg07 Rope4_Seg06
Rope4_Seg08 Rope4_Seg07
Rope4_Seg09 Rope4_Seg08
L_rear_hand01 Rope4_Seg09
L_rear_hand02 Rope4_Seg09
L_rear_hand03 Rope4_Seg09
[BasePosition]
#SegmentName Tx, Ty, Tz, Rx, Ry, Rz, BoneLength
MASTER 0.000000 0.000000 0.000000 -90.000000 0.000000 0.000000 10.000000 
root 0.000000 0.000000 0.000000 0.000000 0.000000 0.000000 10.000000 
chest 0.000000 0.000000 0.000000 0.000000 0.000000 0.000000 10.000000 
L_mid_tent01 0.000000 0.000000 0.000000 0.000000 0.000000 0.000000 10.000000 
R_mid_tent01 0.000000 0.000000 0.000000 0.000000 0.000000 0.000000 10.000000 
spine01 0.000000 0.000000 0.000000 0.000000 0.000000 0.000000 10.000000 
Bip01_Neck 0.000000 0.000000 0.000000 0.000000 0.000000 0.000000 10.000000 
L_humerus 0.000000 0.000000 0.000000 0.000000 0.000000 0.000000 10.000000 
R_humerus 0.000000 0.000000 0.000000 0.000000 0.000000 0.000000 10.000000 
weapon_bone 0.000000 0.000000 0.000000 0.000000 0.000000 0.000000 10.000000 
Bip01_Head 0.000000 0.000000 0.000000 0.000000 0.000000 0.000000 10.000000 
eye_left_bone 0.000000 0.000000 0.000000 0.000000 0.000000 0.000000 10.000000 
eye_right_bone 0.000000 0.000000 0.000000 0.000000 0.000000 0.000000 10.000000 
L_forearm 0.000000 0.000000 0.000000 0.000000 0.000000 0.000000 10.000000 
L_front_hand 0.000000 0.000000 0.000000 0.000000 0.000000 0.000000 10.000000 
L_weapon_bone 0.000000 0.000000 0.000000 0.000000 0.000000 0.000000 10.000000 
L_front_hand01_01 0.000000 0.000000 0.000000 0.000000 0.000000 0.000000 10.000000 
L_front_hand02_01 0.000000 0.000000 0.000000 0.000000 0.000000 0.000000 10.000000 
L_front_hand03_01 0.000000 0.000000 0.000000 0.000000 0.000000 0.000000 10.000000 
L_front_hand01_02 0.000000 0.000000 0.000000 0.000000 0.000000 0.000000 10.000000 
L_front_hand02_02 0.000000 0.000000 0.000000 0.000000 0.000000 0.000000 10.000000 
L_front_hand03_02 0.000000 0.000000 0.000000 0.000000 0.000000 0.000000 10.000000 
R_forearm 0.000000 0.000000 0.000000 0.000000 0.000000 0.000000 10.000000 
R_front_hand 0.000000 0.000000 0.000000 0.000000 0.000000 0.000000 10.000000 
R_weapon_bone 0.000000 0.000000 0.000000 0.000000 0.000000 0.000000 10.000000 
R_front_hand01_01 0.000000 0.000000 0.000000 0.000000 0.000000 0.000000 10.000000 
R_front_hand02_01 0.000000 0.000000 0.000000 0.000000 0.000000 0.000000 10.000000 
R_front_hand03_01 0.000000 0.000000 0.000000 0.000000 0.000000 0.000000 10.000000 
R_front_hand01_02 0.000000 0.000000 0.000000 0.000000 0.000000 0.000000 10.000000 
R_front_hand02_02 0.000000 0.000000 0.000000 0.000000 0.000000 0.000000 10.000000 
R_front_hand03_02 0.000000 0.000000 0.000000 0.000000 0.000000 0.000000 10.000000 
null_rope01_connect 0.000000 0.000000 0.000000 0.000000 0.000000 0.000000 10.000000 
Rope1_Seg01 0.000000 0.000000 0.000000 0.000000 0.000000 0.000000 10.000000 
Rope1_Seg02 0.000000 0.000000 0.000000 0.000000 0.000000 0.000000 10.000000 
Rope1_Seg03 0.000000 0.000000 0.000000 0.000000 0.000000 0.000000 10.000000 
Rope1_Seg04 0.000000 0.000000 0.000000 0.000000 0.000000 0.000000 10.000000 
Rope1_Seg05 0.000000 0.000000 0.000000 0.000000 0.000000 0.000000 10.000000 
Rope1_Seg06 0.000000 0.000000 0.000000 0.000000 0.000000 0.000000 10.000000 
Rope1_Seg07 0.000000 0.000000 0.000000 0.000000 0.000000 0.000000 10.000000 
Rope1_Seg09 0.000000 0.000000 0.000000 0.000000 0.000000 0.000000 10.000000 
L_mid_hand01 0.000000 0.000000 0.000000 0.000000 0.000000 0.000000 10.000000 
L_mid_hand02 0.000000 0.000000 0.000000 0.000000 0.000000 0.000000 10.000000 
L_mid_hand03 0.000000 0.000000 0.000000 0.000000 0.000000 0.000000 10.000000 
null_rope02_connect 0.000000 0.000000 0.000000 0.000000 0.000000 0.000000 10.000000 
Rope2_Seg01 0.000000 0.000000 0.000000 0.000000 0.000000 0.000000 10.000000 
Rope2_Seg02 0.000000 0.000000 0.000000 0.000000 0.000000 0.000000 10.000000 
Rope2_Seg03 0.000000 0.000000 0.000000 0.000000 0.000000 0.000000 10.000000 
Rope2_Seg04 0.000000 0.000000 0.000000 0.000000 0.000000 0.000000 10.000000 
Rope2_Seg05 0.000000 0.000000 0.000000 0.000000 0.000000 0.000000 10.000000 
Rope2_Seg06 0.000000 0.000000 0.000000 0.000000 0.000000 0.000000 10.000000 
Rope2_Seg07 0.000000 0.000000 0.000000 0.000000 0.000000 0.000000 10.000000 
Rope2_Seg09 0.000000 0.000000 0.000000 0.000000 0.000000 0.000000 10.000000 
R_mid_hand01 0.000000 0.000000 0.000000 0.000000 0.000000 0.000000 10.000000 
R_mid_hand02 0.000000 0.000000 0.000000 0.000000 0.000000 0.000000 10.000000 
R_mid_hand03 0.000000 0.000000 0.000000 0.000000 0.000000 0.000000 10.000000 
spine02 0.000000 0.000000 0.000000 0.000000 0.000000 0.000000 10.000000 
spine03 0.000000 0.000000 0.000000 0.000000 0.000000 0.000000 10.000000 
pelvis 0.000000 0.000000 0.000000 0.000000 0.000000 0.000000 10.000000 
null_rope03_connect 0.000000 0.000000 0.000000 0.000000 0.000000 0.000000 10.000000 
null_rope04_connect 0.000000 0.000000 0.000000 0.000000 0.000000 0.000000 10.000000 
Rope3_Seg01 0.000000 0.000000 0.000000 0.000000 0.000000 0.000000 10.000000 
Rope3_Seg02 0.000000 0.000000 0.000000 0.000000 0.000000 0.000000 10.000000 
Rope3_Seg03 0.000000 0.000000 0.000000 0.000000 0.000000 0.000000 10.000000 
Rope3_Seg04 0.000000 0.000000 0.000000 0.000000 0.000000 0.000000 10.000000 
Rope3_Seg05 0.000000 0.000000 0.000000 0.000000 0.000000 0.000000 10.000000 
Rope3_Seg06 0.000000 0.000000 0.000000 0.000000 0.000000 0.000000 10.000000 
Rope3_Seg07 0.000000 0.000000 0.000000 0.000000 0.000000 0.000000 10.000000 
Rope3_Seg08 0.000000 0.000000 0.000000 0.000000 0.000000 0.000000 10.000000 
Rope3_Seg09 0.000000 0.000000 0.000000 0.000000 0.000000 0.000000 10.000000 
R_rear_hand01 0.000000 0.000000 0.000000 0.000000 0.000000 0.000000 10.000000 
R_rear_hand02 0.000000 0.000000 0.000000 0.000000 0.000000 0.000000 10.000000 
R_rear_hand03 0.000000 0.000000 0.000000 0.000000 0.000000 0.000000 10.000000 
Rope4_Seg01 0.000000 0.000000 0.000000 0.000000 0.000000 0.000000 10.000000 
Rope4_Seg02 0.000000 0.000000 0.000000 0.000000 0.000000 0.000000 10.000000 
Rope4_Seg03 0.000000 0.000000 0.000000 0.000000 0.000000 0.000000 10.000000 
Rope4_Seg04 0.000000 0.000000 0.000000 0.000000 0.000000 0.000000 10.000000 
Rope4_Seg05 0.000000 0.000000 0.000000 0.000000 0.000000 0.000000 10.000000 
Rope4_Seg06 0.000000 0.000000 0.000000 0.000000 0.000000 0.000000 10.000000 
Rope4_Seg07 0.000000 0.000000 0.000000 0.000000 0.000000 0.000000 10.000000 
Rope4_Seg08 0.000000 0.000000 0.000000 0.000000 0.000000 0.000000 10.000000 
Rope4_Seg09 0.000000 0.000000 0.000000 0.000000 0.000000 0.000000 10.000000 
L_rear_hand01 0.000000 0.000000 0.000000 0.000000 0.000000 0.000000 10.000000 
L_rear_hand02 0.000000 0.000000 0.000000 0.000000 0.000000 0.000000 10.000000 
L_rear_hand03 0.000000 0.000000 0.000000 0.000000 0.000000 0.000000 10.000000 
#Beginning of Data. Separated by tabs
#Fr	Tx	Ty	Tz	Rx	Ry	Rz	SF
[MASTER]
55 -2062.961426 2532.873047 3397.878906 0.001660 0.001660 0.001660 4713.474121
56 -2259.797607 2246.633789 3314.603516 0.001660 0.001660 0.001660 4597.895996
[root]
55 -161.724823 -62.822109 1500.113525 -46.547394 -30.509909 -144.158051 1510.113281
56 -174.300537 -62.822109 1500.116821 -51.072544 -35.082565 -140.454971 1511.515015
[chest]
55 -84.512650 -34.090519 0.000000 5.999999 -37.529369 129.799652 91.129311
56 -84.512650 -34.090519 0.000000 8.792884 -38.075550 125.516022 91.129311
[L_mid_tent01]
55 27.299576 22.177504 -249.918228 96.590485 24.474680 -169.526642 252.381119
56 27.299578 22.177504 -249.918228 95.954163 24.450480 -169.877853 252.381119
[R_mid_tent01]
55 23.228794 24.509907 226.238495 161.652786 -25.982475 83.757423 228.744751
56 23.228794 24.509907 226.238495 161.842850 -26.101658 83.323845 228.744751
[spine01]
55 -0.361383 -0.195265 0.000000 0.001845 0.001451 13.654368 0.410763
56 -0.361383 -0.195265 0.000000 0.001845 0.001451 13.654368 0.410763
[Bip01_Neck]
55 165.484543 71.581718 0.000119 176.643677 -1.657967 43.431911 180.302734
56 165.484543 71.581718 0.000119 176.643677 -1.657967 43.431911 180.302734
[L_humerus]
55 -13.983130 -135.272980 -120.471481 -151.139008 51.056908 -55.442299 181.680161
56 -13.983130 -135.272980 -120.471481 -153.186508 48.771610 -57.597191 181.680161
[R_humerus]
55 -13.983309 -135.273102 125.287651 132.869507 -23.357182 -26.231701 184.909012
56 -13.983309 -135.273102 125.287651 135.805817 -22.617086 -29.765514 184.909012
[weapon_bone]
55 235.964890 -300.705902 0.000000 0.000000 -89.951546 -128.212341 382.234833
56 235.964890 -300.705902 0.000000 0.000000 -89.951546 -128.212341 382.234833
[Bip01_Head]
55 213.441833 185.721191 11.701400 3.896584 -2.382901 27.870333 283.172546
56 213.441879 185.721085 11.702821 2.831339 -2.965717 32.286793 283.172577
[eye_left_bone]
55 -24.626970 125.451866 -64.772606 0.000000 -90.000000 -99.840431 143.318359
56 -24.626970 125.451866 -64.772606 0.000000 -90.000000 -99.840431 143.318359
[eye_right_bone]
55 -24.626970 125.451866 64.327362 0.000000 -89.965736 80.156380 143.117676
56 -24.626970 125.451866 64.327362 0.000000 -89.965736 80.156380 143.117676
[L_forearm]
55 322.776093 0.000000 -0.000119 0.000119 -0.002344 -95.807457 322.776093
56 322.776093 0.000000 -0.000119 0.000119 -0.002344 -95.807457 322.776093
[L_front_hand]
55 241.149185 -0.042021 -3.300071 149.893951 -1.837326 -27.423067 241.171753
56 241.149185 -0.042021 -3.300071 149.893951 -1.837326 -27.423067 241.171753
[L_weapon_bone]
55 156.183838 0.000000 0.000000 0.000014 0.000007 0.000001 156.183838
56 156.183838 0.000000 0.000000 0.000014 0.000007 0.000001 156.183838
[L_front_hand01_01]
55 86.095154 20.947098 -0.655860 -0.366594 -0.477154 75.385582 88.609184
56 86.095154 20.947098 -0.655860 -0.366594 -0.477154 75.385574 88.609184
[L_front_hand02_01]
55 86.935165 -11.437475 24.513514 154.399796 -59.883820 -61.369572 91.046425
56 86.935165 -11.437475 24.513514 154.399796 -59.883835 -61.369587 91.046425
[L_front_hand03_01]
55 86.637497 -14.123976 -20.424902 -153.913849 58.118122 -62.702866 90.126129
56 86.637497 -14.123976 -20.424902 -153.913879 58.118141 -62.702908 90.126129
[L_front_hand01_02]
55 71.020905 -0.000179 0.000030 0.000334 -0.002323 -106.379684 71.020905
56 71.020905 -0.000179 0.000030 0.000334 -0.002323 -106.379684 71.020905
[L_front_hand02_02]
55 71.020927 -0.000119 0.000060 0.000334 -0.002323 -106.379684 71.020927
56 71.020927 -0.000119 0.000060 0.000334 -0.002323 -106.379684 71.020927
[L_front_hand03_02]
55 71.020905 -0.000060 0.000060 0.000334 -0.002323 -106.379684 71.020905
56 71.020905 -0.000060 0.000060 0.000334 -0.002323 -106.379684 71.020905
[R_forearm]
55 322.776428 -0.000060 0.000030 0.155342 -0.145899 -47.593468 322.776428
56 322.776428 -0.000060 0.000030 0.152050 -0.147953 -46.798897 322.776428
[R_front_hand]
55 238.847015 -0.006795 2.210259 -8.879457 -10.642941 -26.315098 238.857239
56 238.847015 -0.006795 2.210259 -8.879457 -10.642941 -26.315098 238.857239
[R_weapon_bone]
55 155.664093 0.002503 -0.000030 0.003487 0.001180 -90.988930 155.664078
56 155.664093 0.002503 -0.000030 0.003487 0.001180 -90.988930 155.664078
[R_front_hand01_01]
55 87.624611 14.231146 22.918642 -154.633484 -59.950619 61.746037 91.683487
56 87.624611 14.231146 22.918642 -154.633499 -59.950619 61.746044 91.683487
[R_front_hand02_01]
55 89.356956 14.367283 -19.491137 154.602661 58.302849 63.744389 92.579636
56 89.356956 14.367283 -19.491137 154.602661 58.302849 63.744389 92.579636
[R_front_hand03_01]
55 87.286232 -22.307278 -0.143439 0.162155 -0.423168 -75.767921 90.091743
56 87.286232 -22.307278 -0.143439 0.162155 -0.423168 -75.767921 90.091743
[R_front_hand01_02]
55 71.020905 0.000060 0.000119 0.002323 -0.000334 106.381706 71.020905
56 71.020905 0.000060 0.000119 0.002323 -0.000334 106.381714 71.020905
[R_front_hand02_02]
55 71.020844 -0.000030 -0.000119 0.002323 -0.000334 106.381706 71.020836
56 71.020844 -0.000030 -0.000119 0.002323 -0.000334 106.381714 71.020836
[R_front_hand03_02]
55 71.020905 0.000000 0.000030 0.002323 -0.000334 106.381706 71.020905
56 71.020905 0.000000 0.000030 0.002323 -0.000334 106.381714 71.020905
[null_rope01_connect]
55 328.732483 0.000000 -0.000238 -138.747772 -7.003054 71.527229 328.732483
56 328.732483 0.000000 -0.000238 -138.980118 -3.736439 76.299850 328.732483
[Rope1_Seg01]
55 0.000000 0.000000 0.000000 62.564716 -0.386675 66.495857 0.000000
56 0.000000 0.000000 0.000000 55.142467 2.250414 63.348312 0.000000
[Rope1_Seg02]
55 139.999863 -0.000179 0.000000 -14.126858 -6.542958 -1.428116 139.999863
56 139.999863 -0.000179 0.000000 -12.833238 -5.227355 -4.104428 139.999863
[Rope1_Seg03]
55 139.999924 0.000060 -0.000060 -26.714855 -9.756053 -4.975385 139.999924
56 139.999924 0.000060 -0.000060 -21.071987 -7.950449 -10.925345 139.999924
[Rope1_Seg04]
55 139.999924 -0.000060 -0.000119 -26.299759 -8.168192 -11.317394 139.999924
56 139.999924 -0.000060 -0.000119 -10.617969 -3.056118 -8.711688 139.999924
[Rope1_Seg05]
55 139.999832 0.000119 -0.000060 22.533430 1.482924 11.942095 139.999832
56 139.999832 0.000119 -0.000060 24.764107 -0.913634 19.262922 139.999832
[Rope1_Seg06]
55 139.999954 0.000119 -0.000060 15.508924 3.040044 5.355412 139.999954
56 139.999954 0.000119 -0.000060 12.214017 2.131122 5.459998 139.999954
[Rope1_Seg07]
55 139.999985 0.000060 0.000000 6.552325 1.752964 1.776661 139.999985
56 139.999985 0.000060 0.000000 6.612611 1.547472 2.404922 139.999985
[Rope1_Seg09]
55 121.602913 0.000119 -0.000089 -89.793175 -1.359789 0.847147 121.602913
56 121.602913 0.000119 -0.000089 -89.793175 -1.359789 0.847147 121.602913
[L_mid_hand01]
55 103.859421 1.038730 8.195221 130.544357 -67.584518 -38.866943 104.187431
56 103.859421 1.038730 8.195221 130.544388 -67.584534 -38.866955 104.187431
[L_mid_hand02]
55 105.572853 -4.139662 -10.864139 -168.923172 43.409309 -73.498894 106.211075
56 105.572853 -4.139662 -10.864139 -168.923172 43.409317 -73.498894 106.211075
[L_mid_hand03]
55 104.641464 17.579376 -3.913581 -6.012625 17.808174 74.893669 106.179977
56 104.641464 17.579376 -3.913581 -6.012627 17.808174 74.893669 106.179977
[null_rope02_connect]
55 328.732849 0.000179 -0.000119 -165.393692 54.578320 -54.711884 328.732849
56 328.732849 0.000179 -0.000119 -161.090439 59.919044 -49.750298 328.732849
[Rope2_Seg01]
55 0.000192 0.000230 0.000000 -48.205074 -7.560151 60.589993 0.000299
56 0.000194 0.000231 0.000000 -47.931973 -7.947387 55.403580 0.000302
[Rope2_Seg02]
55 139.999741 -0.000060 -0.000119 2.211420 3.636512 6.826410 139.999756
56 139.999741 -0.000060 -0.000119 1.998542 2.819774 9.125003 139.999756
[Rope2_Seg03]
55 140.000107 0.000030 0.000000 1.370729 2.780605 4.389806 140.000107
56 140.000107 0.000030 0.000000 1.306469 1.927197 5.724623 140.000107
[Rope2_Seg04]
55 139.999802 0.000000 -0.000060 0.811389 2.020825 2.707186 139.999802
56 139.999802 0.000000 -0.000060 0.937513 1.433884 3.990991 139.999802
[Rope2_Seg05]
55 139.999985 -0.000060 0.000119 1.569311 2.813040 5.935466 139.999985
56 139.999985 -0.000060 0.000119 1.801889 2.921590 7.211920 139.999985
[Rope2_Seg06]
55 139.999893 -0.000030 -0.000119 2.109366 3.554454 7.966900 139.999893
56 139.999893 -0.000030 -0.000119 2.335869 3.958407 8.921372 139.999893
[Rope2_Seg07]
55 139.999893 0.000060 -0.000060 1.314695 2.640733 5.183879 139.999893
56 139.999893 0.000060 -0.000060 1.419413 2.783214 5.747960 139.999893
[Rope2_Seg09]
55 121.338966 0.000089 -0.000060 33.793236 -1.359788 -0.847141 121.338966
56 121.338966 0.000089 -0.000060 33.793236 -1.359788 -0.847141 121.338966
[R_mid_hand01]
55 104.680779 11.144459 -10.335981 -16.212055 45.237240 70.462852 105.778534
56 104.680779 11.144459 -10.335981 -16.212065 45.237247 70.462852 105.778534
[R_mid_hand02]
55 104.070427 2.443552 8.231699 49.067371 -67.749794 39.286461 104.424065
56 104.070427 2.443552 8.231699 49.067387 -67.749794 39.286469 104.424065
[R_mid_hand03]
55 106.028137 -11.221827 -5.996406 -177.101105 15.551026 -76.585571 106.788818
56 106.028137 -11.221827 -5.996406 -177.101105 15.551026 -76.585571 106.788818
[spine02]
55 129.756927 0.001550 0.000119 -1.023899 -3.926965 6.770993 129.756927
56 129.756927 0.001550 0.000119 -1.023899 -3.926965 6.770993 129.756927
[spine03]
55 78.613770 0.087357 -4.898776 1.040680 4.146419 4.212375 78.766304
56 78.613770 0.087359 -4.898774 1.040681 4.146420 4.212376 78.766304
[pelvis]
55 169.435242 0.051022 0.000000 0.019518 -0.190233 -10.721436 169.435257
56 169.435242 0.051022 0.000000 0.019518 -0.190233 -10.721436 169.435257
[null_rope03_connect]
55 -1.257226 -2.466202 137.391083 -33.373268 -45.136665 158.003754 137.418976
56 -1.257226 -2.466202 137.391083 -36.208126 -50.733162 161.528625 137.418976
[null_rope04_connect]
55 -1.259640 -2.480268 -137.844437 -33.373268 -45.136665 158.003754 137.872513
56 -1.259640 -2.480268 -137.844437 -36.208126 -50.733162 161.528625 137.872513
[Rope3_Seg01]
55 -0.000009 0.000039 -0.000153 6.693438 -47.310883 123.626205 0.000158
56 -0.000009 0.000041 -0.000153 -16.499237 -67.655876 149.939453 0.000158
[Rope3_Seg02]
55 139.999924 -0.000119 0.000060 -9.221229 8.536479 -38.812840 139.999924
56 139.999924 -0.000119 0.000060 -12.181738 7.966348 -43.845692 139.999924
[Rope3_Seg03]
55 139.999924 -0.000119 0.000119 -14.214409 8.095056 -22.997559 139.999924
56 139.999924 -0.000119 0.000119 -17.968077 8.719531 -23.837500 139.999924
[Rope3_Seg04]
55 139.999924 0.000119 0.000000 -12.519569 7.064764 -13.340867 139.999924
56 139.999924 0.000119 0.000000 -14.994789 10.091863 -11.513278 139.999924
[Rope3_Seg05]
55 139.999924 -0.000238 0.000060 -5.627026 3.827805 -4.750704 139.999924
56 139.999924 -0.000238 0.000060 -5.239410 4.580549 -3.111842 139.999924
[Rope3_Seg06]
55 139.999893 -0.000119 -0.000060 -2.531070 2.137480 -2.094026 139.999893
56 139.999893 -0.000119 -0.000060 -2.224252 2.408773 -1.390906 139.999893
[Rope3_Seg07]
55 139.999771 0.000060 -0.000119 -1.474643 1.478497 -1.323261 139.999771
56 139.999771 0.000060 -0.000119 -1.222547 1.639591 -0.861684 139.999771
[Rope3_Seg08]
55 139.999985 -0.000060 0.000000 -0.687277 0.926758 -0.790305 139.999985
56 139.999985 -0.000060 0.000000 -0.517230 1.018222 -0.507416 139.999985
[Rope3_Seg09]
55 90.185997 -0.000179 -0.000060 89.793228 -1.359877 -0.847183 90.185997
56 90.185997 -0.000179 -0.000060 89.793228 -1.359877 -0.847183 90.185997
[R_rear_hand01]
55 103.366196 -6.073594 -10.757982 -177.714203 24.565958 -73.910942 104.101845
56 103.366196 -6.073594 -10.757982 -177.714203 24.565960 -73.910950 104.101845
[R_rear_hand02]
55 100.509819 12.039542 -7.992327 -12.874829 36.868488 72.167213 101.543350
56 100.509819 12.039542 -7.992327 -12.874829 36.868488 72.167213 101.543350
[R_rear_hand03]
55 101.539970 5.215704 5.435467 71.484619 -71.816643 21.513803 101.819031
56 101.539970 5.215704 5.435467 71.484627 -71.816643 21.513817 101.819031
[Rope4_Seg01]
55 0.000000 0.000077 0.000000 -93.912529 -0.826673 120.531670 0.000077
56 0.000000 0.000078 0.000000 -102.422882 -11.174820 132.892014 0.000078
[Rope4_Seg02]
55 139.999985 0.000060 0.000119 -6.331924 22.729166 -1.752216 139.999985
56 139.999985 0.000060 0.000119 -15.746294 27.628778 -6.920005 139.999985
[Rope4_Seg03]
55 139.999924 0.000000 -0.000238 1.002287 44.405941 2.163221 139.999924
56 139.999924 0.000000 -0.000238 0.359982 43.143238 6.651965 139.999924
[Rope4_Seg04]
55 139.999985 0.000000 0.000119 0.714129 2.414773 -0.695351 139.999985
56 139.999985 0.000000 0.000119 -2.428368 0.963873 12.024776 139.999985
[Rope4_Seg05]
55 139.999802 -0.000060 -0.000119 -0.152628 -1.967081 -0.233100 139.999802
56 139.999802 -0.000060 -0.000119 -0.331622 0.526085 1.746095 139.999802
[Rope4_Seg06]
55 139.999924 0.000000 0.000060 0.140129 0.011641 -0.067541 139.999924
56 139.999924 0.000000 0.000060 -0.099058 0.398112 0.906408 139.999924
[Rope4_Seg07]
55 139.999802 0.000000 0.000000 0.154971 0.006669 -0.042829 139.999802
56 139.999802 0.000000 0.000000 -0.006851 0.263824 0.600086 139.999802
[Rope4_Seg08]
55 139.999924 0.000000 0.000119 -1.437578 0.006256 -0.028089 139.999924
56 139.999924 0.000000 0.000119 -1.540936 0.159975 0.370476 139.999924
[Rope4_Seg09]
55 90.185791 0.000060 0.000060 -135.617828 2.228885 0.850567 90.185791
56 90.185791 0.000060 0.000060 -135.617828 2.228885 0.850567 90.185791
[L_rear_hand01]
55 101.696655 -8.392275 -7.654577 -12.874831 -36.868481 107.832764 102.329041
56 101.696655 -8.392275 -7.654577 -12.874826 -36.868492 107.832764 102.329041
[L_rear_hand02]
55 102.726799 -1.568258 5.773216 71.484627 71.816643 158.486160 102.900848
56 102.726799 -1.568258 5.773216 71.484581 71.816628 158.486160 102.900848
[L_rear_hand03]
55 104.552910 9.721220 -10.420293 -177.714203 -24.565960 -106.089035 105.519653
56 104.552910 9.721220 -10.420293 -177.714203 -24.565958 -106.089043 105.519653
